<svg xmlns="http://www.w3.org/2000/svg" width="24" height="24" viewBox="0 0 24 24"><defs><style>.a{fill:#fff;}.b{fill:#f4516c;}.c,.d{stroke:none;}.d{fill:#d6dadf;}</style></defs><g class="a"><path class="c" d="M 20 23.5 L 4 23.5 C 2.070090055465698 23.5 0.5 21.92991065979004 0.5 20 L 0.5 4 C 0.5 2.070090055465698 2.070090055465698 0.5 4 0.5 L 20 0.5 C 21.92991065979004 0.5 23.5 2.070090055465698 23.5 4 L 23.5 20 C 23.5 21.92991065979004 21.92991065979004 23.5 20 23.5 Z"/><path class="d" d="M 4 1 C 2.345790863037109 1 1 2.345790863037109 1 4 L 1 20 C 1 21.65420913696289 2.345790863037109 23 4 23 L 20 23 C 21.65420913696289 23 23 21.65420913696289 23 20 L 23 4 C 23 2.345790863037109 21.65420913696289 1 20 1 L 4 1 M 4 0 L 20 0 C 22.20914077758789 0 24 1.790859222412109 24 4 L 24 20 C 24 22.20914077758789 22.20914077758789 24 20 24 L 4 24 C 1.790859222412109 24 0 22.20914077758789 0 20 L 0 4 C 0 1.790859222412109 1.790859222412109 0 4 0 Z"/></g><path class="b" d="M10.094,11.781a.754.754,0,0,1-1.062,0L6,8.75,2.969,11.781A.723.723,0,0,1,2.437,12a.723.723,0,0,1-.531-.219L.219,10.094a.754.754,0,0,1,0-1.062L3.25,6,.219,2.969A.723.723,0,0,1,0,2.437a.723.723,0,0,1,.219-.531L1.906.219A.723.723,0,0,1,2.437,0a.723.723,0,0,1,.531.219L6,3.25,9.031.219a.754.754,0,0,1,1.062,0l1.687,1.687A.723.723,0,0,1,12,2.437a.723.723,0,0,1-.219.531L8.75,6l3.031,3.031a.754.754,0,0,1,0,1.062Z" transform="translate(6 6.5)"/></svg>